<mxfile host="app.diagrams.net" modified="2023-10-04T02:20:46.989Z" agent="Mozilla/5.0 (Windows NT 10.0; Win64; x64; rv:109.0) Gecko/20100101 Firefox/118.0" etag="6xb6h-YZ6mxC7XvmR0_j" version="22.0.2" type="github">
  <diagram name="Page-1" id="s6w_RcCr7QGeiTl-ISrG">
    <mxGraphModel dx="1597" dy="385" grid="1" gridSize="10" guides="1" tooltips="1" connect="1" arrows="1" fold="1" page="1" pageScale="1" pageWidth="850" pageHeight="1100" math="0" shadow="0">
      <root>
        <mxCell id="0" />
        <mxCell id="1" parent="0" />
        <mxCell id="N4pLPISdI5TTB342rzjO-26" style="edgeStyle=orthogonalEdgeStyle;rounded=0;orthogonalLoop=1;jettySize=auto;html=1;entryX=0.5;entryY=0;entryDx=0;entryDy=0;" edge="1" parent="1" source="N4pLPISdI5TTB342rzjO-2" target="N4pLPISdI5TTB342rzjO-3">
          <mxGeometry relative="1" as="geometry" />
        </mxCell>
        <mxCell id="N4pLPISdI5TTB342rzjO-2" value="start" style="ellipse;whiteSpace=wrap;html=1;" vertex="1" parent="1">
          <mxGeometry x="360" y="20" width="120" height="80" as="geometry" />
        </mxCell>
        <mxCell id="N4pLPISdI5TTB342rzjO-3" value="Angka" style="shape=parallelogram;perimeter=parallelogramPerimeter;whiteSpace=wrap;html=1;fixedSize=1;" vertex="1" parent="1">
          <mxGeometry x="170" y="130" width="120" height="60" as="geometry" />
        </mxCell>
        <mxCell id="N4pLPISdI5TTB342rzjO-37" style="edgeStyle=orthogonalEdgeStyle;rounded=0;orthogonalLoop=1;jettySize=auto;html=1;exitX=0.5;exitY=1;exitDx=0;exitDy=0;entryX=0.5;entryY=0;entryDx=0;entryDy=0;" edge="1" parent="1" source="N4pLPISdI5TTB342rzjO-27" target="N4pLPISdI5TTB342rzjO-28">
          <mxGeometry relative="1" as="geometry" />
        </mxCell>
        <mxCell id="N4pLPISdI5TTB342rzjO-27" value="Tebakan" style="shape=parallelogram;perimeter=parallelogramPerimeter;whiteSpace=wrap;html=1;fixedSize=1;" vertex="1" parent="1">
          <mxGeometry x="340" y="260" width="120" height="60" as="geometry" />
        </mxCell>
        <mxCell id="N4pLPISdI5TTB342rzjO-38" style="edgeStyle=orthogonalEdgeStyle;rounded=0;orthogonalLoop=1;jettySize=auto;html=1;exitX=0.5;exitY=1;exitDx=0;exitDy=0;entryX=0.5;entryY=0;entryDx=0;entryDy=0;" edge="1" parent="1" source="N4pLPISdI5TTB342rzjO-28" target="N4pLPISdI5TTB342rzjO-29">
          <mxGeometry relative="1" as="geometry" />
        </mxCell>
        <mxCell id="N4pLPISdI5TTB342rzjO-28" value="Proses penebakan angka" style="rounded=0;whiteSpace=wrap;html=1;" vertex="1" parent="1">
          <mxGeometry x="220" y="410" width="120" height="60" as="geometry" />
        </mxCell>
        <mxCell id="N4pLPISdI5TTB342rzjO-29" value="Angka tebakan" style="rhombus;whiteSpace=wrap;html=1;" vertex="1" parent="1">
          <mxGeometry x="380" y="540" width="80" height="80" as="geometry" />
        </mxCell>
        <mxCell id="N4pLPISdI5TTB342rzjO-45" style="edgeStyle=orthogonalEdgeStyle;rounded=0;orthogonalLoop=1;jettySize=auto;html=1;exitX=0;exitY=0.25;exitDx=0;exitDy=0;entryX=0.5;entryY=0;entryDx=0;entryDy=0;" edge="1" parent="1" source="N4pLPISdI5TTB342rzjO-30" target="N4pLPISdI5TTB342rzjO-31">
          <mxGeometry relative="1" as="geometry" />
        </mxCell>
        <mxCell id="N4pLPISdI5TTB342rzjO-30" value="BENAR" style="shape=parallelogram;perimeter=parallelogramPerimeter;whiteSpace=wrap;html=1;fixedSize=1;" vertex="1" parent="1">
          <mxGeometry x="160" y="550" width="120" height="60" as="geometry" />
        </mxCell>
        <mxCell id="N4pLPISdI5TTB342rzjO-31" value="END" style="ellipse;whiteSpace=wrap;html=1;" vertex="1" parent="1">
          <mxGeometry x="-30" y="590" width="120" height="80" as="geometry" />
        </mxCell>
        <mxCell id="N4pLPISdI5TTB342rzjO-32" value="angka&amp;lt;tebakan" style="rhombus;whiteSpace=wrap;html=1;" vertex="1" parent="1">
          <mxGeometry x="490" y="600" width="120" height="80" as="geometry" />
        </mxCell>
        <mxCell id="N4pLPISdI5TTB342rzjO-33" value="angka&amp;gt;tebakan" style="rhombus;whiteSpace=wrap;html=1;" vertex="1" parent="1">
          <mxGeometry x="420" y="750" width="120" height="80" as="geometry" />
        </mxCell>
        <mxCell id="N4pLPISdI5TTB342rzjO-47" style="edgeStyle=orthogonalEdgeStyle;rounded=0;orthogonalLoop=1;jettySize=auto;html=1;" edge="1" parent="1" source="N4pLPISdI5TTB342rzjO-34">
          <mxGeometry relative="1" as="geometry">
            <mxPoint x="670" y="310" as="targetPoint" />
            <Array as="points">
              <mxPoint x="730" y="505" />
              <mxPoint x="671" y="505" />
            </Array>
          </mxGeometry>
        </mxCell>
        <mxCell id="N4pLPISdI5TTB342rzjO-34" value="Angka saya lebih kecil" style="shape=parallelogram;perimeter=parallelogramPerimeter;whiteSpace=wrap;html=1;fixedSize=1;" vertex="1" parent="1">
          <mxGeometry x="610" y="700" width="120" height="60" as="geometry" />
        </mxCell>
        <mxCell id="N4pLPISdI5TTB342rzjO-46" style="edgeStyle=orthogonalEdgeStyle;rounded=0;orthogonalLoop=1;jettySize=auto;html=1;entryX=1;entryY=0.5;entryDx=0;entryDy=0;" edge="1" parent="1" source="N4pLPISdI5TTB342rzjO-35" target="N4pLPISdI5TTB342rzjO-27">
          <mxGeometry relative="1" as="geometry">
            <mxPoint x="490" y="310" as="targetPoint" />
            <Array as="points">
              <mxPoint x="770" y="890" />
              <mxPoint x="770" y="310" />
            </Array>
          </mxGeometry>
        </mxCell>
        <mxCell id="N4pLPISdI5TTB342rzjO-35" value="Angka saya lebih besar" style="shape=parallelogram;perimeter=parallelogramPerimeter;whiteSpace=wrap;html=1;fixedSize=1;" vertex="1" parent="1">
          <mxGeometry x="610" y="860" width="120" height="60" as="geometry" />
        </mxCell>
        <mxCell id="N4pLPISdI5TTB342rzjO-36" style="edgeStyle=orthogonalEdgeStyle;rounded=0;orthogonalLoop=1;jettySize=auto;html=1;exitX=0.5;exitY=1;exitDx=0;exitDy=0;entryX=0.583;entryY=-0.033;entryDx=0;entryDy=0;entryPerimeter=0;" edge="1" parent="1" source="N4pLPISdI5TTB342rzjO-3" target="N4pLPISdI5TTB342rzjO-27">
          <mxGeometry relative="1" as="geometry" />
        </mxCell>
        <mxCell id="N4pLPISdI5TTB342rzjO-44" style="edgeStyle=orthogonalEdgeStyle;rounded=0;orthogonalLoop=1;jettySize=auto;html=1;exitX=0.5;exitY=1;exitDx=0;exitDy=0;entryX=0.675;entryY=1.067;entryDx=0;entryDy=0;entryPerimeter=0;" edge="1" parent="1" source="N4pLPISdI5TTB342rzjO-33" target="N4pLPISdI5TTB342rzjO-30">
          <mxGeometry relative="1" as="geometry" />
        </mxCell>
        <mxCell id="N4pLPISdI5TTB342rzjO-62" value="YES" style="endArrow=classic;html=1;rounded=0;" edge="1" parent="1" source="N4pLPISdI5TTB342rzjO-32" target="N4pLPISdI5TTB342rzjO-34">
          <mxGeometry relative="1" as="geometry">
            <mxPoint x="480" y="720" as="sourcePoint" />
            <mxPoint x="600" y="720" as="targetPoint" />
          </mxGeometry>
        </mxCell>
        <mxCell id="N4pLPISdI5TTB342rzjO-63" value="YES" style="edgeLabel;resizable=0;html=1;align=center;verticalAlign=middle;" connectable="0" vertex="1" parent="N4pLPISdI5TTB342rzjO-62">
          <mxGeometry relative="1" as="geometry" />
        </mxCell>
        <mxCell id="N4pLPISdI5TTB342rzjO-64" value="" style="endArrow=classic;html=1;rounded=0;entryX=0;entryY=0.25;entryDx=0;entryDy=0;" edge="1" parent="1" target="N4pLPISdI5TTB342rzjO-35">
          <mxGeometry relative="1" as="geometry">
            <mxPoint x="520" y="800" as="sourcePoint" />
            <mxPoint x="640" y="800.5" as="targetPoint" />
          </mxGeometry>
        </mxCell>
        <mxCell id="N4pLPISdI5TTB342rzjO-65" value="YES" style="edgeLabel;resizable=0;html=1;align=center;verticalAlign=middle;" connectable="0" vertex="1" parent="N4pLPISdI5TTB342rzjO-64">
          <mxGeometry relative="1" as="geometry" />
        </mxCell>
        <mxCell id="N4pLPISdI5TTB342rzjO-66" value="NO" style="endArrow=classic;html=1;rounded=0;entryX=0.5;entryY=0;entryDx=0;entryDy=0;" edge="1" parent="1" target="N4pLPISdI5TTB342rzjO-33">
          <mxGeometry relative="1" as="geometry">
            <mxPoint x="530" y="670" as="sourcePoint" />
            <mxPoint x="500" y="740" as="targetPoint" />
          </mxGeometry>
        </mxCell>
        <mxCell id="N4pLPISdI5TTB342rzjO-67" value="NO" style="edgeLabel;resizable=0;html=1;align=center;verticalAlign=middle;" connectable="0" vertex="1" parent="N4pLPISdI5TTB342rzjO-66">
          <mxGeometry relative="1" as="geometry" />
        </mxCell>
        <mxCell id="N4pLPISdI5TTB342rzjO-70" value="" style="endArrow=classic;html=1;rounded=0;entryX=0;entryY=0.5;entryDx=0;entryDy=0;" edge="1" parent="1" source="N4pLPISdI5TTB342rzjO-29" target="N4pLPISdI5TTB342rzjO-32">
          <mxGeometry x="-0.4286" y="1" relative="1" as="geometry">
            <mxPoint x="409.5" y="610" as="sourcePoint" />
            <mxPoint x="409.5" y="680" as="targetPoint" />
            <mxPoint as="offset" />
          </mxGeometry>
        </mxCell>
        <mxCell id="N4pLPISdI5TTB342rzjO-71" value="NO" style="edgeLabel;resizable=0;html=1;align=center;verticalAlign=middle;" connectable="0" vertex="1" parent="N4pLPISdI5TTB342rzjO-70">
          <mxGeometry relative="1" as="geometry" />
        </mxCell>
        <mxCell id="N4pLPISdI5TTB342rzjO-72" value="YES" style="endArrow=classic;html=1;rounded=0;" edge="1" parent="1">
          <mxGeometry relative="1" as="geometry">
            <mxPoint x="380" y="579.5" as="sourcePoint" />
            <mxPoint x="270" y="579.5" as="targetPoint" />
          </mxGeometry>
        </mxCell>
        <mxCell id="N4pLPISdI5TTB342rzjO-73" value="YES" style="edgeLabel;resizable=0;html=1;align=center;verticalAlign=middle;" connectable="0" vertex="1" parent="N4pLPISdI5TTB342rzjO-72">
          <mxGeometry relative="1" as="geometry" />
        </mxCell>
      </root>
    </mxGraphModel>
  </diagram>
</mxfile>
